<svg width="294" height="48" viewBox="0 0 294 48" fill="none" xmlns="http://www.w3.org/2000/svg">
<rect width="294" height="48" fill="#252525"/>
<path d="M37.848 33V16.248H47.328V18.48H40.392V23.376H46.536V25.584H40.392V33H37.848ZM52.5996 16.248V27.096C52.5996 28.44 52.8316 29.432 53.2956 30.072C53.7596 30.712 54.5836 31.032 55.7676 31.032C56.9516 31.032 57.7756 30.712 58.2396 30.072C58.7036 29.432 58.9356 28.44 58.9356 27.096V16.248H61.4796V26.688C61.4796 27.824 61.3756 28.808 61.1676 29.64C60.9756 30.472 60.6556 31.16 60.2076 31.704C59.7596 32.248 59.1676 32.648 58.4316 32.904C57.7116 33.16 56.8236 33.288 55.7676 33.288C54.7116 33.288 53.8156 33.16 53.0796 32.904C52.3596 32.648 51.7756 32.248 51.3276 31.704C50.8796 31.16 50.5516 30.472 50.3436 29.64C50.1516 28.808 50.0556 27.824 50.0556 26.688V16.248H52.5996ZM65.0589 33V16.248H67.6029V30.768H73.6989V33H65.0589ZM76.2152 33V16.248H78.7592V30.768H84.8552V33H76.2152ZM96.9934 33.288C95.7454 33.288 94.6574 33.056 93.7294 32.592C92.8174 32.112 92.0334 31.424 91.3774 30.528L93.1294 28.92C93.6254 29.608 94.1934 30.136 94.8334 30.504C95.4734 30.872 96.2014 31.056 97.0174 31.056C99.0014 31.056 99.9934 30.144 99.9934 28.32C99.9934 27.584 99.8174 27.024 99.4654 26.64C99.1134 26.24 98.5054 25.936 97.6414 25.728L96.2734 25.44C94.7694 25.104 93.6574 24.568 92.9374 23.832C92.2334 23.08 91.8814 22.032 91.8814 20.688C91.8814 19.136 92.3454 17.96 93.2734 17.16C94.2174 16.36 95.5294 15.96 97.2094 15.96C98.4094 15.96 99.4174 16.168 100.233 16.584C101.065 16.984 101.785 17.616 102.393 18.48L100.641 20.016C100.209 19.408 99.7214 18.952 99.1774 18.648C98.6494 18.344 97.9774 18.192 97.1614 18.192C96.2494 18.192 95.5614 18.384 95.0974 18.768C94.6494 19.136 94.4254 19.752 94.4254 20.616C94.4254 21.32 94.6014 21.856 94.9534 22.224C95.3214 22.576 95.9134 22.848 96.7294 23.04L98.0974 23.352C98.8974 23.528 99.5774 23.752 100.137 24.024C100.697 24.28 101.153 24.6 101.505 24.984C101.873 25.368 102.137 25.824 102.297 26.352C102.457 26.864 102.537 27.464 102.537 28.152C102.537 29.832 102.049 31.112 101.073 31.992C100.113 32.856 98.7534 33.288 96.9934 33.288ZM110.778 18.48V33H108.234V18.48H103.794V16.248H115.218V18.48H110.778ZM125.607 33L124.311 28.368H118.671L117.375 33H114.879L119.895 16.248H123.135L128.175 33H125.607ZM122.151 21L121.623 18.552H121.311L120.783 21L119.295 26.28H123.711L122.151 21ZM135.785 33.288C134.809 33.288 133.929 33.128 133.145 32.808C132.377 32.472 131.713 31.952 131.153 31.248C130.609 30.544 130.185 29.648 129.881 28.56C129.593 27.456 129.449 26.144 129.449 24.624C129.449 23.104 129.593 21.8 129.881 20.712C130.185 19.608 130.609 18.704 131.153 18C131.713 17.296 132.377 16.784 133.145 16.464C133.929 16.128 134.809 15.96 135.785 15.96C137.209 15.96 138.345 16.272 139.193 16.896C140.057 17.504 140.745 18.424 141.257 19.656L139.097 20.856C138.809 19.912 138.401 19.232 137.873 18.816C137.361 18.4 136.665 18.192 135.785 18.192C134.649 18.192 133.761 18.584 133.121 19.368C132.497 20.152 132.185 21.232 132.185 22.608V26.64C132.185 28.016 132.497 29.096 133.121 29.88C133.761 30.664 134.649 31.056 135.785 31.056C136.681 31.056 137.401 30.832 137.945 30.384C138.505 29.936 138.937 29.216 139.241 28.224L141.353 29.472C140.825 30.704 140.121 31.648 139.241 32.304C138.361 32.96 137.209 33.288 135.785 33.288ZM148.511 25.08L146.423 27.768V33H143.879V16.248H146.423V21.768L146.279 24.888H146.591L148.727 21.768L152.663 16.248H155.591L150.263 23.352L155.975 33H152.975L148.511 25.08ZM163.309 16.248H168.829C169.821 16.248 170.701 16.408 171.469 16.728C172.253 17.048 172.909 17.552 173.437 18.24C173.981 18.912 174.389 19.776 174.661 20.832C174.949 21.888 175.093 23.152 175.093 24.624C175.093 26.096 174.949 27.36 174.661 28.416C174.389 29.472 173.981 30.344 173.437 31.032C172.909 31.704 172.253 32.2 171.469 32.52C170.701 32.84 169.821 33 168.829 33H163.309V16.248ZM168.829 30.768C169.933 30.768 170.797 30.416 171.421 29.712C172.045 28.992 172.357 27.944 172.357 26.568V22.68C172.357 21.304 172.045 20.264 171.421 19.56C170.797 18.84 169.933 18.48 168.829 18.48H165.853V30.768H168.829ZM178.121 33V16.248H187.841V18.48H180.665V23.376H187.145V25.584H180.665V30.768H187.841V33H178.121ZM194.304 33L189.384 16.248H192.048L195.024 26.784L195.72 30.696H196.032L196.728 26.784L199.68 16.248H202.296L197.4 33H194.304ZM204.536 33V16.248H214.256V18.48H207.08V23.376H213.56V25.584H207.08V30.768H214.256V33H204.536ZM217.403 33V16.248H219.947V30.768H226.043V33H217.403ZM233.571 33.288C232.563 33.288 231.659 33.128 230.859 32.808C230.059 32.472 229.371 31.952 228.795 31.248C228.235 30.544 227.803 29.648 227.499 28.56C227.211 27.456 227.067 26.144 227.067 24.624C227.067 23.104 227.211 21.8 227.499 20.712C227.803 19.608 228.235 18.704 228.795 18C229.371 17.296 230.059 16.784 230.859 16.464C231.659 16.128 232.563 15.96 233.571 15.96C234.579 15.96 235.483 16.128 236.283 16.464C237.083 16.784 237.763 17.296 238.323 18C238.899 18.704 239.331 19.608 239.619 20.712C239.923 21.8 240.075 23.104 240.075 24.624C240.075 26.144 239.923 27.456 239.619 28.56C239.331 29.648 238.899 30.544 238.323 31.248C237.763 31.952 237.083 32.472 236.283 32.808C235.483 33.128 234.579 33.288 233.571 33.288ZM233.571 31.032C234.771 31.032 235.699 30.648 236.355 29.88C237.011 29.096 237.339 28.016 237.339 26.64V22.608C237.339 21.232 237.011 20.16 236.355 19.392C235.699 18.608 234.771 18.216 233.571 18.216C232.371 18.216 231.443 18.608 230.787 19.392C230.131 20.16 229.803 21.232 229.803 22.608V26.64C229.803 28.016 230.131 29.096 230.787 29.88C231.443 30.648 232.371 31.032 233.571 31.032ZM243.09 33V16.248H249.714C251.154 16.248 252.234 16.68 252.954 17.544C253.69 18.392 254.058 19.624 254.058 21.24C254.058 22.856 253.69 24.096 252.954 24.96C252.234 25.808 251.154 26.232 249.714 26.232H245.634V33H243.09ZM245.634 23.976H249.498C250.106 23.976 250.562 23.824 250.866 23.52C251.186 23.2 251.346 22.696 251.346 22.008V20.472C251.346 19.784 251.186 19.288 250.866 18.984C250.562 18.664 250.106 18.504 249.498 18.504H245.634V23.976ZM256.731 33V16.248H266.451V18.48H259.275V23.376H265.755V25.584H259.275V30.768H266.451V33H256.731ZM272.142 33H269.598V16.248H276.222C277.662 16.248 278.742 16.68 279.462 17.544C280.198 18.392 280.566 19.616 280.566 21.216C280.566 22.512 280.326 23.56 279.846 24.36C279.366 25.16 278.646 25.696 277.686 25.968L280.878 33H278.046L275.142 26.16H272.142V33ZM276.006 24.024C276.614 24.024 277.07 23.872 277.374 23.568C277.694 23.248 277.854 22.736 277.854 22.032V20.472C277.854 19.768 277.694 19.264 277.374 18.96C277.07 18.64 276.614 18.48 276.006 18.48H272.142V24.024H276.006Z" fill="#F1F1F1"/>
<circle cx="18" cy="24" r="6" fill="#F1F1F1"/>
</svg>
